# xmcd CD database file
#
# Track frame offsets:
#	150
#	19202
#	28990
#	46990
#	56517
#	68322
#	79390
#	92962
#	107172
#	119420
#
# Disc length: 1787 seconds
#
# Revision: 0
# Processed by: cddbd v1.5.1PL0 Copyright (c) Steve Scherf et al.
# Submitted via: CDex 1.51
#
DISCID=8406f90a
DTITLE=Crossroads Records - DollyWood Country Standards
DYEAR=9999
DGENRE=Country
TTITLE0=Walkin After Midnight
TTITLE1=Steel Guitar Rag
TTITLE2=Last Date
TTITLE3=Rocky Top
TTITLE4=Tennessee Waltz
TTITLE5=Wildwood Flower
TTITLE6=Your Cheatin Heart
TTITLE7=Orange Blossom Special
TTITLE8=Faded Love
TTITLE9=Riders In The Sky
EXTD=YEAR: 9999
EXTT0=
EXTT1=
EXTT2=
EXTT3=
EXTT4=
EXTT5=
EXTT6=
EXTT7=
EXTT8=
EXTT9=
PLAYORDER=
